<?xml version="1.0" standalone="no"?>
<!DOCTYPE svg PUBLIC "-//W3C//DTD SVG 20010904//EN"
 "http://www.w3.org/TR/2001/REC-SVG-20010904/DTD/svg10.dtd">
<svg version="1.0" xmlns="http://www.w3.org/2000/svg"
 width="420.000000pt" height="594.000000pt" viewBox="0 0 420.000000 594.000000"
 preserveAspectRatio="xMidYMid meet">

<g transform="translate(0.000000,594.000000) scale(0.100000,-0.100000)"
fill="#000000" stroke="none">
<path d="M1985 4573 c-90 -7 -204 -26 -275 -45 -95 -25 -268 -97 -362 -150
-306 -173 -559 -481 -683 -830 l-27 -76 -90 -4 c-75 -2 -92 -6 -104 -22 -11
-16 -14 -80 -14 -343 0 -308 1 -323 19 -333 27 -14 144 -13 163 3 14 10 17 47
21 247 6 307 31 429 138 673 83 188 218 362 399 513 122 103 135 112 257 173
154 79 292 125 453 152 72 12 343 14 405 4 371 -62 689 -241 922 -518 87 -104
130 -170 184 -276 102 -204 158 -431 159 -632 0 -115 -3 -122 -55 -135 -17 -4
-156 -61 -310 -127 -154 -66 -352 -148 -439 -183 -159 -63 -160 -64 -180 -45
-76 71 -186 28 -186 -74 0 -30 6 -47 23 -63 29 -28 70 -42 98 -35 35 8 77 51
85 85 5 25 16 35 63 55 31 13 70 30 86 38 17 8 68 30 115 48 82 33 223 94 285
122 17 8 94 39 172 70 79 31 163 67 187 80 24 13 47 21 50 18 3 -4 6 -39 6
-79 0 -40 4 -84 10 -98 9 -25 12 -26 94 -26 47 0 88 5 91 10 11 18 5 674 -6
685 -5 5 -51 12 -100 15 l-91 5 -24 70 c-33 95 -123 277 -177 358 -114 169
-302 350 -471 453 -266 162 -595 242 -891 217z"/>
<path d="M1922 4390 c2 -46 7 -60 19 -60 13 0 14 8 5 60 -13 77 -28 77 -24 0z"/>
<path d="M2350 4386 c-13 -63 -13 -65 -3 -68 11 -4 33 106 23 116 -4 4 -13
-17 -20 -48z"/>
<path d="M1999 4374 c1 -24 7 -44 12 -44 14 0 11 77 -3 83 -10 3 -12 -7 -9
-39z"/>
<path d="M2030 4410 c0 -5 5 -10 10 -10 6 0 10 5 10 10 0 6 -4 10 -10 10 -5 0
-10 -4 -10 -10z"/>
<path d="M2108 4380 c2 -23 9 -40 16 -40 9 0 11 11 7 37 -8 51 -28 54 -23 3z"/>
<path d="M1715 4393 c4 -10 12 -37 17 -60 12 -53 32 -58 22 -5 -10 54 -22 82
-35 82 -7 0 -8 -7 -4 -17z"/>
<path d="M2161 4403 c2 -26 26 -75 32 -66 7 12 -14 73 -25 73 -4 0 -8 -3 -7
-7z"/>
<path d="M2254 4385 c-13 -20 -14 -28 -4 -40 7 -8 17 -15 23 -15 8 0 8 3 0 11
-7 7 -8 21 -3 40 10 36 6 37 -16 4z"/>
<path d="M2306 4387 c3 -10 9 -15 12 -12 3 3 0 11 -7 18 -10 9 -11 8 -5 -6z"/>
<path d="M2489 4383 c-1 -5 -1 -30 -1 -57 0 -40 4 -51 18 -57 27 -11 34 -10
34 1 0 6 -7 10 -15 10 -12 0 -15 13 -15 55 0 30 -4 55 -10 55 -5 0 -10 -3 -11
-7z"/>
<path d="M1600 4372 c0 -26 47 -118 58 -114 8 2 10 8 4 15 -5 7 -17 33 -27 60
-15 41 -35 63 -35 39z"/>
<path d="M1793 4340 c7 -24 15 -36 20 -31 11 11 -4 63 -20 68 -7 3 -7 -8 0
-37z"/>
<path d="M2066 4362 c-3 -6 -1 -14 5 -17 14 -9 20 -2 10 14 -6 8 -11 9 -15 3z"/>
<path d="M1660 4351 c0 -22 29 -81 39 -81 14 0 14 13 1 26 -5 5 -11 20 -13 34
-4 24 -27 42 -27 21z"/>
<path d="M2650 4330 c0 -5 5 -10 10 -10 6 0 10 5 10 10 0 6 -4 10 -10 10 -5 0
-10 -4 -10 -10z"/>
<path d="M2545 4320 c-4 -6 0 -19 9 -29 9 -10 16 -23 16 -29 0 -7 5 -12 10
-12 16 0 11 30 -9 56 -12 16 -22 21 -26 14z"/>
<path d="M2427 4313 c-4 -3 -7 -11 -7 -17 0 -6 5 -5 12 2 6 6 9 14 7 17 -3 3
-9 2 -12 -2z"/>
<path d="M1564 4295 c8 -8 18 -24 21 -35 6 -20 16 -25 27 -14 11 10 -27 64
-45 64 -16 0 -17 -2 -3 -15z"/>
<path d="M2618 4270 c-9 -22 -13 -42 -9 -44 11 -7 44 65 34 75 -4 4 -16 -10
-25 -31z"/>
<path d="M2665 4269 c-4 -5 0 -18 9 -28 9 -10 16 -23 16 -29 0 -7 5 -12 10
-12 6 0 10 6 10 14 0 8 -4 18 -10 21 -5 3 -10 15 -10 26 0 21 -15 26 -25 8z"/>
<path d="M1371 4260 c-10 -6 -4 -20 22 -59 36 -51 65 -54 31 -3 -10 15 -23 37
-29 49 -7 14 -16 19 -24 13z"/>
<path d="M1480 4263 c8 -3 18 -11 22 -17 5 -7 8 -4 8 7 0 11 -7 17 -22 16 -16
0 -18 -2 -8 -6z"/>
<path d="M1448 4249 c-10 -25 10 -59 34 -59 20 0 20 1 5 13 -9 6 -20 23 -25
36 -6 17 -10 20 -14 10z"/>
<path d="M1540 4248 c0 -9 5 -20 11 -23 17 -11 18 -2 3 19 -12 17 -14 17 -14
4z"/>
<path d="M2735 4220 c-17 -34 -19 -50 -5 -50 6 0 10 6 10 14 0 7 7 19 15 26
17 14 20 40 5 40 -5 0 -16 -13 -25 -30z"/>
<path d="M1296 4208 c4 -7 18 -27 31 -44 13 -17 23 -36 23 -42 0 -15 17 -16
25 -2 8 12 -56 99 -73 100 -8 0 -10 -5 -6 -12z"/>
<path d="M2800 4199 c0 -5 5 -7 10 -4 6 3 10 8 10 11 0 2 -4 4 -10 4 -5 0 -10
-5 -10 -11z"/>
<path d="M2828 4166 c-12 -28 -55 -38 -44 -11 3 8 1 15 -4 15 -17 0 -11 -30 8
-37 9 -4 20 -11 24 -17 8 -12 7 -13 30 31 10 19 13 35 7 38 -5 4 -14 -5 -21
-19z"/>
<path d="M2866 4128 c-16 -18 -23 -35 -18 -40 5 -5 20 6 36 26 33 44 19 56
-18 14z"/>
<path d="M2930 4120 c0 -7 -10 -24 -22 -37 -14 -15 -18 -27 -12 -33 6 -6 18 4
33 26 18 26 21 38 13 46 -9 9 -12 9 -12 -2z"/>
<path d="M1230 4113 c1 -19 49 -65 60 -58 8 5 2 16 -20 36 -32 30 -40 34 -40
22z"/>
<path d="M1135 4080 c-3 -5 -1 -10 4 -10 6 0 11 5 11 10 0 6 -2 10 -4 10 -3 0
-8 -4 -11 -10z"/>
<path d="M2946 4061 c-14 -15 -15 -24 -6 -40 13 -26 20 -27 13 -2 -3 11 4 28
16 40 14 14 16 21 8 21 -8 0 -22 -9 -31 -19z"/>
<path d="M1160 4052 c0 -14 56 -63 63 -55 4 3 -5 19 -20 35 -27 28 -43 35 -43
20z"/>
<path d="M3006 4045 c-3 -8 -1 -15 4 -15 6 0 10 7 10 15 0 8 -2 15 -4 15 -2 0
-6 -7 -10 -15z"/>
<path d="M1220 4045 c0 -10 29 -24 34 -17 3 6 -3 12 -14 15 -11 3 -20 4 -20 2z"/>
<path d="M3004 3984 c-4 -14 -2 -30 4 -36 8 -8 9 -5 6 9 -6 21 9 38 41 46 13
3 9 5 -12 6 -27 1 -34 -3 -39 -25z"/>
<path d="M1150 3990 c-8 -5 -23 -7 -32 -4 -13 4 -16 1 -12 -10 7 -19 18 -20
46 -5 16 8 23 8 30 -2 7 -11 8 -9 6 5 -4 23 -18 29 -38 16z"/>
<path d="M3067 3976 c-13 -10 -15 -16 -6 -21 10 -7 28 10 29 28 0 9 -2 9 -23
-7z"/>
<path d="M1020 3950 c0 -6 6 -12 13 -14 6 -2 21 -7 32 -12 11 -4 23 -8 27 -8
3 -1 10 -4 14 -8 11 -12 36 -9 32 3 -2 6 -26 20 -53 30 -58 22 -65 23 -65 9z"/>
<path d="M3170 3932 c0 -4 -18 -18 -40 -32 -22 -14 -40 -30 -40 -37 0 -19 6
-17 55 20 41 30 58 57 35 57 -5 0 -10 -3 -10 -8z"/>
<path d="M3211 3874 c-1 -27 -31 -54 -59 -54 -12 0 -22 -4 -22 -10 0 -5 13
-10 28 -10 38 0 65 30 59 67 -3 19 -5 21 -6 7z"/>
<path d="M936 3851 c-4 -5 10 -19 29 -31 20 -12 42 -28 50 -36 9 -10 16 -11
20 -3 4 5 5 12 4 13 -43 33 -99 64 -103 57z"/>
<path d="M1075 3850 c3 -5 8 -10 11 -10 2 0 4 5 4 10 0 6 -5 10 -11 10 -5 0
-7 -4 -4 -10z"/>
<path d="M1800 3812 c-25 -15 -78 -49 -118 -75 -39 -27 -107 -65 -150 -85
l-77 -37 49 -3 c43 -3 57 2 140 52 51 30 98 62 106 70 20 25 40 19 40 -10 0
-32 59 -94 89 -94 14 0 25 -11 35 -34 18 -42 51 -66 93 -66 32 0 33 1 33 44 0
40 -2 43 -23 39 -18 -4 -31 4 -50 27 -33 39 -33 41 -2 70 38 36 35 84 -7 110
-46 28 -103 25 -158 -8z"/>
<path d="M2066 3809 c-24 -35 -6 -64 40 -64 35 0 39 3 42 28 2 16 -2 35 -9 43
-17 21 -56 17 -73 -7z"/>
<path d="M2248 3813 c-37 -42 -39 -59 -13 -97 31 -46 31 -57 1 -86 -17 -15
-33 -21 -50 -18 -24 5 -26 3 -26 -33 l0 -39 48 0 c54 0 92 28 92 68 0 19 6 22
38 22 46 0 92 41 92 83 0 15 3 27 7 27 3 0 34 -27 69 -60 70 -67 150 -110 207
-110 41 0 50 15 15 26 -33 10 -143 80 -218 138 -36 28 -86 60 -112 73 -58 28
-128 31 -150 6z"/>
<path d="M3250 3810 c0 -5 5 -10 10 -10 6 0 10 5 10 10 0 6 -4 10 -10 10 -5 0
-10 -4 -10 -10z"/>
<path d="M3196 3785 c-10 -8 -23 -16 -29 -18 -6 -2 -7 -8 -3 -15 5 -8 15 -6
37 10 28 21 38 38 22 38 -5 0 -17 -7 -27 -15z"/>
<path d="M940 3772 c0 -4 15 -13 33 -20 40 -15 41 -15 44 -5 3 9 -43 33 -64
33 -7 0 -13 -4 -13 -8z"/>
<path d="M3227 3753 c-4 -3 -7 -17 -7 -30 0 -12 -5 -23 -12 -23 -9 0 -9 -3 0
-12 16 -16 28 -2 35 40 6 30 -1 41 -16 25z"/>
<path d="M900 3710 c0 -5 5 -10 10 -10 6 0 10 5 10 10 0 6 -4 10 -10 10 -5 0
-10 -4 -10 -10z"/>
<path d="M969 3707 c7 -7 14 -8 21 -1 6 6 2 10 -12 11 -16 2 -18 -1 -9 -10z"/>
<path d="M2070 3506 c0 -181 1 -194 19 -199 16 -4 19 4 25 62 3 36 6 126 6
199 l0 132 -25 0 -25 0 0 -194z"/>
<path d="M887 3684 c-4 -4 -7 -12 -7 -17 0 -6 3 -8 6 -4 4 3 19 0 35 -8 32
-17 39 -18 39 -7 0 5 -12 15 -27 23 -16 7 -31 15 -34 16 -3 2 -8 0 -12 -3z"/>
<path d="M1696 3657 c-27 -17 -64 -41 -82 -53 -37 -22 -37 -34 -1 -27 36 8
142 77 145 96 5 24 -6 21 -62 -16z"/>
<path d="M3233 3664 c-29 -13 -53 -28 -53 -34 0 -14 5 -13 52 10 23 11 48 20
55 20 7 0 13 7 13 15 0 19 -4 18 -67 -11z"/>
<path d="M2458 3664 c-25 -24 96 -124 151 -124 22 0 21 3 -20 30 -24 16 -62
45 -85 65 -22 19 -43 32 -46 29z"/>
<path d="M3300 3635 c0 -14 -14 -19 -47 -18 -17 1 -16 -14 1 -20 19 -8 60 15
64 36 2 9 -1 17 -7 17 -6 0 -11 -7 -11 -15z"/>
<path d="M1744 3612 c-17 -15 -44 -37 -60 -49 -20 -15 -24 -22 -13 -22 23 -1
141 78 134 89 -10 16 -28 11 -61 -18z"/>
<path d="M850 3619 c0 -13 68 -42 80 -34 6 4 10 11 10 16 0 6 -4 7 -10 4 -5
-3 -23 1 -39 10 -35 18 -41 18 -41 4z"/>
<path d="M2404 3608 c-13 -21 105 -98 125 -82 6 5 -93 93 -106 94 -6 0 -15 -5
-19 -12z"/>
<path d="M1802 3578 c-44 -34 -52 -48 -27 -48 16 0 85 57 85 71 0 16 -15 10
-58 -23z"/>
<path d="M2340 3587 c0 -22 83 -87 95 -75 6 5 -75 88 -86 88 -5 0 -9 -6 -9
-13z"/>
<path d="M842 3572 c-6 -2 -12 -8 -12 -13 0 -6 5 -7 10 -4 6 4 23 0 39 -8 23
-12 31 -12 34 -2 6 13 -49 35 -71 27z"/>
<path d="M3265 3569 c-12 -19 5 -23 22 -6 16 16 16 17 1 17 -9 0 -20 -5 -23
-11z"/>
<path d="M1854 3534 c-5 -20 -1 -32 18 -51 25 -24 26 -24 57 -9 l31 16 -39 35
c-46 42 -58 43 -67 9z"/>
<path d="M3313 3547 c-18 -6 -33 -17 -33 -25 0 -10 6 -12 18 -7 9 4 25 10 35
12 9 3 17 12 17 19 0 8 -1 13 -2 13 -2 -1 -18 -7 -35 -12z"/>
<path d="M2277 3513 l-37 -26 30 -18 c39 -24 42 -24 70 6 l24 25 -22 20 c-25
24 -19 25 -65 -7z"/>
<path d="M820 3512 c0 -12 69 -32 75 -22 3 4 -9 13 -27 19 -37 13 -48 14 -48
3z"/>
<path d="M3328 3497 c-42 -16 -37 -38 5 -25 17 6 39 13 47 15 13 4 13 5 0 13
-17 11 -17 11 -52 -3z"/>
<path d="M815 3470 c-3 -5 1 -10 10 -10 9 0 13 5 10 10 -3 6 -8 10 -10 10 -2
0 -7 -4 -10 -10z"/>
<path d="M1965 3463 c-37 -9 -75 -54 -75 -89 0 -44 30 -71 163 -146 137 -77
151 -100 103 -171 -17 -25 -21 -38 -13 -46 18 -18 42 -12 72 19 39 41 47 116
16 159 -28 38 -86 72 -173 101 -75 24 -115 51 -128 86 -15 40 -3 55 39 48 27
-4 41 -2 50 10 8 9 12 18 10 20 -9 8 -45 13 -64 9z"/>
<path d="M2178 3463 c-26 -7 -22 -32 8 -45 20 -9 30 -9 45 0 29 18 39 15 39
-14 0 -31 -57 -90 -96 -100 -13 -3 -24 -10 -24 -15 0 -13 42 -28 60 -21 44 15
96 98 86 137 -10 38 -75 70 -118 58z"/>
<path d="M3338 3439 c-11 -6 -18 -21 -17 -37 0 -26 1 -26 9 -4 9 21 20 26 48
23 18 -3 15 16 -4 23 -19 7 -15 8 -36 -5z"/>
<path d="M800 3415 c16 -19 62 -16 68 5 4 12 3 13 -10 2 -12 -9 -23 -10 -43
-2 -25 9 -27 9 -15 -5z"/>
<path d="M2020 3390 c-13 -9 -13 -11 0 -20 15 -10 25 0 18 20 -2 6 -8 6 -18 0z"/>
<path d="M740 3379 c0 -5 5 -7 10 -4 6 3 10 8 10 11 0 2 -4 4 -10 4 -5 0 -10
-5 -10 -11z"/>
<path d="M2150 3381 c0 -5 6 -11 13 -14 8 -3 7 -10 -7 -26 -25 -27 -7 -27 29
1 26 20 27 22 9 35 -21 15 -44 17 -44 4z"/>
<path d="M3378 3348 c-27 -6 -48 -14 -48 -20 0 -5 8 -7 18 -5 9 3 38 8 65 12
26 3 47 10 47 16 0 11 -18 10 -82 -3z"/>
<path d="M2000 3346 c0 -2 7 -7 16 -10 8 -3 12 -2 9 4 -6 10 -25 14 -25 6z"/>
<path d="M730 3323 c0 -34 76 -57 98 -30 9 10 4 12 -24 9 -24 -3 -41 1 -54 13
-11 10 -20 14 -20 8z"/>
<path d="M3411 3303 c-1 -6 -15 -13 -33 -15 -17 -2 -33 -9 -36 -15 -2 -9 6
-11 30 -7 40 8 52 18 45 36 -4 8 -6 9 -6 1z"/>
<path d="M1944 3193 c-12 -18 -19 -46 -19 -79 0 -67 31 -108 127 -168 40 -25
81 -58 90 -74 17 -28 16 -31 -2 -67 -18 -36 -18 -39 -2 -51 23 -18 24 -18 58
17 24 25 29 39 29 79 0 59 -19 82 -117 141 -105 63 -134 111 -104 170 9 18 15
33 14 34 -7 5 -47 25 -51 25 -3 0 -13 -12 -23 -27z"/>
<path d="M2070 3116 c0 -49 7 -76 21 -76 5 0 9 27 9 60 0 47 -3 60 -15 60 -11
0 -15 -12 -15 -44z"/>
<path d="M2030 3115 c0 -14 4 -25 9 -25 5 0 9 11 9 25 0 14 -4 25 -9 25 -5 0
-9 -11 -9 -25z"/>
<path d="M2130 3094 c0 -8 5 -12 10 -9 6 3 10 10 10 16 0 5 -4 9 -10 9 -5 0
-10 -7 -10 -16z"/>
<path d="M1960 2915 c-7 -8 -15 -35 -17 -60 -7 -60 18 -98 104 -156 l68 -45
-3 -52 c-3 -60 13 -69 47 -26 42 54 22 112 -57 163 -26 17 -58 47 -71 67 -22
32 -23 39 -13 67 13 33 9 41 -24 51 -13 4 -26 1 -34 -9z"/>
<path d="M2070 2841 c0 -22 5 -43 10 -46 6 -4 10 10 10 34 0 22 -4 43 -10 46
-6 4 -10 -10 -10 -34z"/>
<path d="M3294 2755 c-4 -15 -1 -32 6 -40 25 -30 70 -11 70 29 0 20 0 20 -15
-1 -10 -14 -22 -19 -35 -16 -26 7 -26 33 0 33 11 0 20 5 20 10 0 6 -9 10 -20
10 -13 0 -22 -9 -26 -25z"/>
<path d="M868 2711 c-27 -9 -48 -22 -48 -30 0 -9 6 -11 18 -6 9 5 36 13 60 19
23 6 42 16 42 23 0 16 -13 15 -72 -6z"/>
<path d="M3270 2680 c0 -5 7 -10 15 -10 8 0 15 5 15 10 0 6 -7 10 -15 10 -8 0
-15 -4 -15 -10z"/>
<path d="M1976 2673 c-9 -9 -7 -76 3 -92 5 -8 40 -35 77 -61 51 -34 72 -55 81
-81 11 -31 12 -32 14 -9 3 53 5 51 -95 131 -11 9 -22 34 -25 59 -4 32 -12 45
-28 51 -11 4 -24 5 -27 2z"/>
<path d="M874 2641 c-45 -25 -33 -43 17 -23 22 8 38 20 36 26 -5 16 -19 15
-53 -3z"/>
<path d="M3250 2649 c0 -21 21 -39 45 -39 25 0 45 18 45 40 -1 12 -2 12 -11
-2 -13 -23 -37 -23 -61 -1 -15 13 -18 14 -18 2z"/>
<path d="M2072 2605 c0 -16 2 -22 5 -12 2 9 2 23 0 30 -3 6 -5 -1 -5 -18z"/>
<path d="M928 2609 c-2 -7 -18 -17 -36 -23 -22 -8 -29 -15 -23 -24 7 -12 14
-11 39 2 37 19 48 34 34 48 -6 6 -11 6 -14 -3z"/>
<path d="M3195 2600 c3 -5 8 -10 11 -10 2 0 4 5 4 10 0 6 -5 10 -11 10 -5 0
-7 -4 -4 -10z"/>
<path d="M3220 2585 c0 -8 8 -15 18 -15 10 0 27 -7 39 -15 19 -13 22 -13 27 2
4 9 4 18 1 21 -3 3 -5 2 -5 -2 0 -3 -13 0 -30 9 -37 19 -50 19 -50 0z"/>
<path d="M928 2534 c-16 -9 -28 -22 -28 -30 0 -18 14 -18 30 0 6 8 20 16 31
18 22 3 27 22 7 25 -7 0 -25 -5 -40 -13z"/>
<path d="M3180 2501 c0 -10 69 -25 77 -17 3 2 2 9 -1 14 -7 11 -76 14 -76 3z"/>
<path d="M1996 2484 c-3 -9 -6 -27 -6 -42 0 -24 2 -23 20 13 24 47 24 45 6 45
-8 0 -17 -7 -20 -16z"/>
<path d="M952 2468 c-15 -15 -15 -41 0 -56 19 -19 29 -14 16 8 -11 17 -10 22
2 30 8 5 23 10 33 10 10 0 15 5 12 10 -9 14 -48 13 -63 -2z"/>
<path d="M3147 2449 c-10 -11 -17 -22 -15 -22 2 -1 17 -12 35 -25 32 -22 32
-22 43 -2 8 15 8 18 -3 14 -7 -2 -22 4 -32 16 -10 11 -13 20 -7 20 7 0 12 5
12 10 0 16 -14 12 -33 -11z"/>
<path d="M991 2428 c10 -19 29 -16 29 5 0 7 -9 13 -19 13 -16 0 -18 -4 -10
-18z"/>
<path d="M2031 2424 c0 -11 3 -14 6 -6 3 7 2 16 -1 19 -3 4 -6 -2 -5 -13z"/>
<path d="M1013 2386 c-20 -15 -28 -27 -23 -36 6 -9 15 -7 39 11 17 12 31 29
31 36 0 18 -9 15 -47 -11z"/>
<path d="M3110 2394 c0 -3 6 -12 14 -20 11 -10 17 -11 22 -3 3 6 0 15 -7 20
-16 10 -29 12 -29 3z"/>
<path d="M1060 2365 c0 -8 5 -15 10 -15 6 0 10 7 10 15 0 8 -4 15 -10 15 -5 0
-10 -7 -10 -15z"/>
<path d="M3093 2356 c4 -53 67 -62 75 -10 3 18 2 18 -8 2 -6 -10 -16 -18 -21
-18 -13 0 -34 20 -42 40 -4 8 -5 2 -4 -14z"/>
<path d="M1067 2315 c-35 -31 -26 -54 10 -25 14 11 30 20 34 20 18 0 9 -28
-13 -43 -16 -11 -20 -18 -12 -26 7 -8 18 -3 39 19 l28 30 -27 25 c-15 14 -28
25 -29 25 -1 0 -15 -12 -30 -25z"/>
<path d="M3006 2332 c-2 -4 4 -8 15 -8 10 0 19 4 19 8 0 4 -6 8 -14 8 -8 0
-17 -4 -20 -8z"/>
<path d="M2980 2291 c0 -26 31 -35 65 -19 24 11 29 10 41 -7 14 -18 14 -18 14
2 0 34 -21 44 -60 30 -26 -9 -34 -9 -37 1 -7 19 -23 14 -23 -7z"/>
<path d="M1173 2243 c23 -6 22 -22 -5 -45 -20 -17 -21 -20 -5 -35 13 -14 17
-14 17 -3 0 7 9 24 21 36 19 20 19 23 4 38 -9 9 -24 15 -33 15 -15 -1 -15 -2
1 -6z"/>
<path d="M3037 2229 c8 -8 16 -8 30 0 16 9 14 10 -11 11 -22 0 -27 -3 -19 -11z"/>
<path d="M1127 2223 c-12 -11 -7 -33 7 -33 12 0 26 20 26 36 0 7 -26 5 -33 -3z"/>
<path d="M2933 2178 c1 -11 -4 -23 -12 -26 -10 -3 -12 0 -8 12 4 9 2 16 -2 16
-12 0 -19 -21 -13 -43 6 -22 48 -33 67 -17 22 18 18 32 -5 18 -26 -16 -37 -3
-17 20 21 23 21 28 2 36 -10 4 -14 -1 -12 -16z"/>
<path d="M1221 2160 c-12 -17 -19 -35 -16 -40 9 -15 25 -12 25 5 0 8 9 20 20
27 11 7 20 18 20 25 0 23 -26 14 -49 -17z"/>
<path d="M1320 2160 c0 -5 5 -10 10 -10 6 0 10 5 10 10 0 6 -4 10 -10 10 -5 0
-10 -4 -10 -10z"/>
<path d="M1278 2116 c-25 -31 -27 -46 -7 -46 4 0 17 14 30 31 31 43 10 57 -23
15z"/>
<path d="M2850 2130 c0 -5 7 -10 15 -10 8 0 15 5 15 10 0 6 -7 10 -15 10 -8 0
-15 -4 -15 -10z"/>
<path d="M2818 2115 c-8 -9 52 -66 63 -60 5 4 -1 19 -13 36 -21 27 -38 36 -50
24z"/>
<path d="M1325 2080 c-25 -27 -9 -55 30 -55 35 0 55 27 39 53 -16 25 -47 26
-69 2z m55 -1 c0 -20 -21 -49 -35 -49 -20 0 -19 19 2 42 18 20 33 24 33 7z"/>
<path d="M2781 2050 c13 -16 19 -33 15 -37 -4 -4 -11 -1 -15 6 -7 10 -10 10
-16 1 -13 -22 13 -35 33 -17 10 9 25 17 32 17 8 0 2 12 -15 30 -39 40 -63 40
-34 0z"/>
<path d="M2685 2061 c-3 -5 -1 -12 5 -16 5 -3 10 1 10 9 0 18 -6 21 -15 7z"/>
<path d="M1416 2024 c-22 -47 -12 -57 19 -19 29 37 46 25 23 -15 -11 -19 -13
-32 -7 -36 12 -7 12 -7 33 33 16 31 15 32 -13 52 -16 12 -31 21 -33 21 -2 0
-12 -16 -22 -36z"/>
<path d="M2626 2038 c-21 -29 -20 -40 5 -72 12 -16 30 -26 45 -26 26 0 26 0
-6 27 -27 23 -31 31 -27 60 7 39 4 41 -17 11z"/>
<path d="M2740 2050 c0 -5 5 -10 10 -10 6 0 10 5 10 10 0 6 -4 10 -10 10 -5 0
-10 -4 -10 -10z"/>
<path d="M1525 1990 c-3 -5 -2 -10 4 -10 5 0 13 5 16 10 3 6 2 10 -4 10 -5 0
-13 -4 -16 -10z"/>
<path d="M1623 1945 c-13 -33 -17 -58 -11 -61 5 -3 11 -4 12 -3 8 11 36 92 36
104 0 32 -18 12 -37 -40z"/>
<path d="M1561 1983 c4 -16 -21 -64 -31 -58 -5 3 -6 13 -3 22 4 10 2 14 -7 11
-25 -8 -21 -27 9 -42 38 -20 46 -20 48 2 1 9 4 28 5 41 2 13 -3 26 -10 28 -7
3 -12 1 -11 -4z"/>
<path d="M2512 1956 c-14 -7 -20 -16 -16 -26 4 -8 9 -25 11 -37 3 -13 11 -23
19 -23 15 0 28 17 16 22 -5 1 -12 15 -16 30 -5 22 -3 26 9 22 8 -4 15 -1 15 4
0 17 -13 19 -38 8z"/>
<path d="M1746 1944 c-26 -25 -31 -62 -11 -84 10 -11 23 -20 29 -20 6 0 5 5
-2 12 -19 19 -14 59 10 85 17 19 19 23 5 23 -8 0 -23 -7 -31 -16z"/>
<path d="M1808 1943 c6 -2 12 -12 12 -21 0 -13 3 -13 12 -4 10 10 10 15 -2 22
-8 5 -19 9 -25 9 -5 0 -4 -3 3 -6z"/>
<path d="M2443 1911 c1 -12 7 -21 15 -21 16 0 12 32 -5 37 -7 3 -11 -4 -10
-16z"/>
<path d="M2407 1913 c-15 -14 -6 -53 14 -64 17 -9 25 -8 38 6 14 14 14 15 0
10 -20 -7 -43 19 -35 40 5 15 -5 21 -17 8z"/>
<path d="M2325 1899 c-4 -6 -13 -8 -21 -5 -8 3 -28 3 -44 -1 -26 -5 -29 -9
-23 -27 3 -11 7 -29 7 -38 0 -10 6 -18 13 -18 9 0 13 11 11 35 -1 19 1 37 5
41 8 9 29 -45 21 -57 -3 -5 3 -9 13 -9 16 0 18 6 15 35 -5 43 13 47 22 5 6
-34 26 -41 26 -9 0 42 -30 74 -45 48z"/>
<path d="M1860 1860 c0 -22 2 -40 4 -40 2 0 13 -3 23 -6 14 -6 16 -4 6 6 -6 7
-9 27 -6 46 4 27 2 34 -11 34 -12 0 -16 -10 -16 -40z"/>
<path d="M2073 1889 c-18 -19 -16 -78 2 -86 21 -7 21 -6 15 50 -4 39 -7 46
-17 36z"/>
<path d="M1916 1859 c-9 -45 -8 -49 9 -49 11 0 15 11 15 40 0 48 -15 53 -24 9z"/>
<path d="M1973 1874 c-4 -11 1 -22 13 -31 10 -8 18 -19 17 -24 -2 -5 4 -9 12
-9 20 0 19 36 -1 44 -9 4 -14 13 -10 21 3 9 0 15 -10 15 -8 0 -17 -7 -21 -16z"/>
<path d="M2140 1876 c-14 -18 -10 -58 7 -63 7 -3 10 7 10 24 -3 40 17 45 21 6
3 -35 16 -43 26 -17 9 24 8 31 -10 48 -19 20 -38 20 -54 2z"/>
<path d="M1970 1820 c0 -5 5 -10 11 -10 5 0 7 5 4 10 -3 6 -8 10 -11 10 -2 0
-4 -4 -4 -10z"/>
<path d="M1272 1558 c-63 -69 -50 -171 25 -193 20 -6 20 -3 -7 24 -19 19 -30
40 -30 58 0 46 19 97 43 115 16 13 18 18 6 18 -8 0 -25 -10 -37 -22z"/>
<path d="M1620 1560 c-8 -16 -8 -20 2 -18 9 2 15 -22 21 -82 5 -47 9 -85 10
-86 1 -1 15 -4 32 -8 28 -7 29 -7 12 11 -10 12 -22 53 -30 108 -12 90 -27 113
-47 75z"/>
<path d="M1872 1563 c3 -40 -25 -183 -36 -183 -6 0 -4 -5 6 -10 18 -11 57 -2
39 9 -7 4 -7 19 0 46 5 22 12 60 15 85 3 25 10 51 16 58 8 9 4 12 -15 12 -18
0 -25 -5 -25 -17z"/>
<path d="M2010 1536 c0 -25 -5 -48 -10 -51 -6 -4 -8 -11 -4 -16 9 -14 -16
-100 -27 -93 -5 3 -9 0 -9 -5 0 -6 15 -11 34 -11 30 0 33 2 29 25 -5 22 10
134 23 178 4 12 0 17 -15 17 -18 0 -21 -6 -21 -44z"/>
<path d="M2274 1571 c7 -11 -21 -171 -34 -193 -8 -14 -6 -18 7 -18 20 0 55 20
37 20 -9 0 -8 17 1 63 26 126 26 137 4 137 -11 0 -18 -4 -15 -9z"/>
<path d="M2360 1576 c0 -2 7 -6 15 -10 8 -3 15 -1 15 4 0 6 -7 10 -15 10 -8 0
-15 -2 -15 -4z"/>
<path d="M2537 1573 c-3 -5 2 -42 9 -83 8 -41 13 -85 11 -97 -4 -20 0 -23 27
-23 18 0 26 3 19 8 -7 4 -17 39 -23 77 -6 39 -13 82 -16 98 -5 26 -18 35 -27
20z"/>
<path d="M2782 1553 c-1 -36 -20 -157 -28 -177 -5 -12 0 -16 20 -16 24 0 36
14 17 22 -4 2 -3 30 4 63 25 123 25 135 6 135 -13 0 -18 -8 -19 -27z"/>
<path d="M2895 1555 c17 -17 25 -35 25 -60 0 -36 -24 -94 -44 -107 -6 -4 -8
-10 -4 -13 3 -4 21 7 40 23 30 28 33 35 33 87 0 48 -4 60 -24 76 -35 28 -55
24 -26 -6z"/>
<path d="M1400 1561 c0 -5 5 -13 10 -16 6 -3 10 -2 10 4 0 5 -4 13 -10 16 -5
3 -10 2 -10 -4z"/>
<path d="M1456 1393 c-11 -11 -6 -23 9 -23 8 0 15 4 15 9 0 13 -16 22 -24 14z"/>
<path d="M1750 1386 c0 -9 7 -16 16 -16 17 0 14 22 -4 28 -7 2 -12 -3 -12 -12z"/>
<path d="M2100 1386 c0 -8 5 -18 10 -21 6 -3 10 3 10 14 0 12 -4 21 -10 21 -5
0 -10 -6 -10 -14z"/>
<path d="M2365 1390 c-4 -6 -3 -16 3 -22 6 -6 12 -6 17 2 4 6 3 16 -3 22 -6 6
-12 6 -17 -2z"/>
<path d="M2666 1391 c-4 -7 -5 -15 -2 -18 9 -9 19 4 14 18 -4 11 -6 11 -12 0z"/>
<path d="M1525 1380 c-3 -5 1 -10 10 -10 9 0 13 5 10 10 -3 6 -8 10 -10 10 -2
0 -7 -4 -10 -10z"/>
<path d="M2436 1381 c-3 -5 1 -11 9 -15 8 -3 15 -1 15 4 0 13 -18 22 -24 11z"/>
</g>
</svg>
