<?xml version="1.0" standalone="no"?>
<!DOCTYPE svg PUBLIC "-//W3C//DTD SVG 20010904//EN"
 "http://www.w3.org/TR/2001/REC-SVG-20010904/DTD/svg10.dtd">
<svg version="1.0" xmlns="http://www.w3.org/2000/svg"
 width="420.000000pt" height="594.000000pt" viewBox="0 0 420.000000 594.000000"
 preserveAspectRatio="xMidYMid meet">

<g transform="translate(0.000000,594.000000) scale(0.100000,-0.100000)"
fill="#000000" stroke="none">
<path d="M2000 4903 c-147 -5 -373 -50 -515 -103 -145 -53 -342 -160 -458
-246 -297 -222 -527 -532 -648 -874 l-37 -105 -107 -5 c-158 -7 -145 31 -145
-435 0 -437 -5 -414 83 -417 29 -1 63 -2 77 -3 14 -1 37 4 53 12 l27 14 0 212
c0 265 25 483 74 637 130 414 355 719 724 984 63 45 290 159 372 186 36 12 74
26 85 31 20 9 70 22 155 40 251 54 677 34 855 -40 11 -5 54 -21 95 -36 89 -33
286 -132 364 -184 30 -20 102 -75 160 -124 265 -221 466 -526 556 -842 12 -44
26 -91 31 -105 27 -79 59 -417 45 -474 -7 -27 -27 -42 -68 -50 -24 -4 -367
-148 -633 -266 -71 -31 -141 -61 -155 -65 -14 -4 -38 -13 -55 -21 -52 -23
-240 -94 -249 -94 -6 0 -22 12 -37 26 -41 39 -112 44 -159 12 -49 -33 -69 -91
-49 -144 28 -73 115 -105 179 -67 27 15 46 44 67 101 9 25 29 35 473 223 80
33 167 72 194 85 28 13 55 24 60 24 15 0 246 94 331 136 108 51 105 53 105
-74 0 -138 4 -142 116 -142 56 0 86 5 102 16 l22 15 0 395 c0 473 12 434 -139
434 -110 0 -111 1 -130 70 -14 48 -23 70 -96 225 -177 376 -491 693 -857 863
-116 54 -137 62 -210 86 -209 67 -421 96 -658 89z"/>
<path d="M1940 4750 c0 -5 5 -10 11 -10 5 0 7 5 4 10 -3 6 -8 10 -11 10 -2 0
-4 -4 -4 -10z"/>
<path d="M1885 4688 c8 -80 11 -89 28 -82 11 4 13 14 6 42 -5 20 -9 52 -9 70
0 22 -5 32 -15 32 -14 0 -15 -10 -10 -62z"/>
<path d="M1830 4729 c0 -5 5 -7 10 -4 6 3 10 8 10 11 0 2 -4 4 -10 4 -5 0 -10
-5 -10 -11z"/>
<path d="M2400 4673 c-7 -32 -15 -64 -17 -70 -3 -7 1 -13 10 -13 9 0 18 19 26
57 13 67 14 83 3 83 -5 0 -15 -26 -22 -57z"/>
<path d="M1638 4704 c-3 -3 1 -26 8 -51 8 -25 14 -57 14 -70 0 -14 6 -23 16
-23 13 0 15 7 9 43 -7 41 -30 107 -38 107 -2 0 -6 -2 -9 -6z"/>
<path d="M1973 4696 c4 -10 7 -33 7 -52 0 -19 5 -34 11 -34 16 0 7 93 -10 98
-10 3 -12 0 -8 -12z"/>
<path d="M2020 4700 c0 -5 5 -10 10 -10 6 0 10 5 10 10 0 6 -4 10 -10 10 -5 0
-10 -4 -10 -10z"/>
<path d="M2065 4700 c-3 -5 -1 -10 4 -10 6 0 11 5 11 10 0 6 -2 10 -4 10 -3 0
-8 -4 -11 -10z"/>
<path d="M2114 4665 c0 -35 4 -45 16 -45 13 0 15 8 11 42 -8 58 -28 60 -27 3z"/>
<path d="M2170 4700 c0 -19 32 -90 41 -90 12 0 12 26 0 48 -5 9 -12 25 -15 35
-6 18 -26 24 -26 7z"/>
<path d="M2286 4678 c-20 -28 -20 -43 0 -62 20 -21 41 -21 24 -1 -8 9 -10 28
-6 50 8 41 3 44 -18 13z"/>
<path d="M2347 4671 c3 -12 9 -21 14 -21 14 0 11 16 -5 29 -12 10 -13 8 -9 -8z"/>
<path d="M2575 4681 c-5 -8 -9 -43 -9 -77 -1 -48 3 -64 14 -67 8 -3 23 -8 33
-12 10 -4 17 -3 17 4 0 6 -7 11 -15 11 -11 0 -15 13 -16 53 -1 69 -12 107 -24
88z"/>
<path d="M1713 4655 c9 -8 18 -28 22 -45 4 -17 13 -30 21 -30 11 0 13 6 8 23
-17 56 -24 67 -44 67 -19 0 -20 -2 -7 -15z"/>
<path d="M1500 4651 c0 -5 9 -30 20 -56 11 -26 20 -55 20 -66 0 -21 10 -25 27
-8 7 7 5 21 -8 45 -9 19 -22 48 -28 65 -9 27 -31 41 -31 20z"/>
<path d="M1574 4636 c-9 -22 20 -90 40 -94 9 -2 16 1 16 7 0 6 -4 11 -10 11
-5 0 -13 18 -16 40 -7 44 -21 60 -30 36z"/>
<path d="M2060 4635 c0 -8 5 -15 10 -15 6 0 10 7 10 15 0 8 -4 15 -10 15 -5 0
-10 -7 -10 -15z"/>
<path d="M2760 4605 c0 -8 5 -15 10 -15 6 0 10 7 10 15 0 8 -4 15 -10 15 -5 0
-10 -7 -10 -15z"/>
<path d="M2630 4587 c0 -8 9 -22 20 -32 11 -10 20 -24 20 -32 0 -7 5 -13 10
-13 15 0 12 36 -5 50 -8 7 -15 19 -15 26 0 8 -7 14 -15 14 -8 0 -15 -6 -15
-13z"/>
<path d="M1464 4545 c19 -41 39 -56 49 -37 7 11 -42 82 -57 82 -10 0 -8 -11 8
-45z"/>
<path d="M2490 4574 c0 -8 5 -12 10 -9 6 3 10 10 10 16 0 5 -4 9 -10 9 -5 0
-10 -7 -10 -16z"/>
<path d="M2719 4530 c-11 -36 -12 -50 -4 -50 15 0 49 75 41 89 -13 20 -21 11
-37 -39z"/>
<path d="M1410 4549 c0 -5 5 -7 10 -4 6 3 10 8 10 11 0 2 -4 4 -10 4 -5 0 -10
-5 -10 -11z"/>
<path d="M2793 4543 c-18 -7 -16 -38 2 -53 8 -7 14 -19 13 -26 -2 -7 2 -13 7
-14 17 -2 18 31 1 49 -9 10 -14 25 -10 35 7 17 6 17 -13 9z"/>
<path d="M1360 4520 c12 -12 25 -18 31 -14 14 9 -9 34 -32 34 -18 0 -18 -1 1
-20z"/>
<path d="M1215 4519 c-4 -5 0 -18 9 -28 9 -10 16 -22 16 -27 1 -18 58 -76 64
-65 7 10 -63 131 -76 131 -4 0 -10 -5 -13 -11z"/>
<path d="M1316 4511 c-21 -33 31 -98 57 -72 8 8 7 11 -5 11 -9 0 -22 16 -30
36 -10 24 -18 33 -22 25z"/>
<path d="M1424 4509 c-8 -14 10 -32 28 -27 11 2 10 7 -4 20 -11 11 -20 14 -24
7z"/>
<path d="M2863 4469 c-22 -40 -22 -59 -2 -59 5 0 9 6 9 14 0 7 9 25 20 39 23
29 26 47 8 47 -7 0 -23 -19 -35 -41z"/>
<path d="M1135 4470 c-4 -6 10 -32 29 -59 20 -27 36 -54 36 -60 0 -14 13 -14
27 0 9 9 1 24 -28 61 -21 27 -39 54 -39 59 0 12 -17 11 -25 -1z"/>
<path d="M2940 4450 c0 -5 4 -10 9 -10 6 0 13 5 16 10 3 6 -1 10 -9 10 -9 0
-16 -4 -16 -10z"/>
<path d="M2970 4405 c-13 -22 -19 -42 -15 -53 6 -14 8 -15 14 -2 3 8 15 28 25
43 13 19 16 31 9 38 -7 7 -18 -1 -33 -26z"/>
<path d="M2900 4396 c0 -8 6 -16 13 -19 8 -3 13 3 13 14 0 11 -6 19 -13 19 -7
0 -13 -6 -13 -14z"/>
<path d="M3023 4363 c-29 -32 -35 -53 -15 -53 4 0 20 16 36 36 38 48 20 64
-21 17z"/>
<path d="M3100 4353 c0 -6 -12 -26 -26 -43 -18 -20 -23 -35 -17 -41 6 -6 20 4
38 31 21 31 25 44 17 52 -9 9 -12 9 -12 1z"/>
<path d="M1050 4343 c0 -5 14 -23 31 -42 21 -23 34 -30 41 -23 7 7 0 20 -23
41 -34 30 -49 38 -49 24z"/>
<path d="M940 4300 c0 -5 5 -10 10 -10 6 0 10 5 10 10 0 6 -4 10 -10 10 -5 0
-10 -4 -10 -10z"/>
<path d="M3120 4288 c-25 -28 -25 -40 1 -64 22 -19 22 -19 9 5 -11 22 -10 27
14 47 14 13 26 26 26 29 0 13 -31 3 -50 -17z"/>
<path d="M967 4274 c-7 -7 61 -74 74 -74 17 0 9 16 -24 48 -34 33 -40 36 -50
26z"/>
<path d="M1050 4254 c0 -8 9 -14 20 -14 11 0 20 4 20 9 0 5 -9 11 -20 14 -13
3 -20 0 -20 -9z"/>
<path d="M3190 4254 c0 -8 5 -12 10 -9 6 3 10 10 10 16 0 5 -4 9 -10 9 -5 0
-10 -7 -10 -16z"/>
<path d="M3202 4214 c-12 -8 -22 -24 -22 -35 0 -20 21 -49 36 -49 5 0 3 5 -4
12 -21 21 -13 46 17 59 20 9 26 16 18 21 -17 11 -20 10 -45 -8z"/>
<path d="M964 4199 c-3 -6 -19 -9 -35 -7 -31 5 -37 -3 -15 -21 10 -9 20 -9 40
0 20 9 29 9 41 -1 12 -10 15 -10 15 3 0 21 -36 41 -46 26z"/>
<path d="M3262 4178 c-16 -16 -15 -28 3 -28 8 0 15 2 15 4 0 2 3 11 6 20 7 19
-7 21 -24 4z"/>
<path d="M800 4151 c0 -5 7 -14 15 -21 8 -7 15 -9 15 -6 0 4 10 1 23 -6 12 -7
27 -13 32 -13 6 -1 18 -5 28 -9 11 -5 23 -4 30 3 14 14 14 14 -64 39 -74 25
-79 26 -79 13z"/>
<path d="M3365 4109 c-16 -16 -41 -34 -56 -42 -19 -9 -25 -17 -19 -26 6 -11
22 -4 69 29 48 34 59 46 50 56 -6 8 -12 14 -13 13 0 -1 -14 -14 -31 -30z"/>
<path d="M3441 4057 c-2 -27 -47 -67 -76 -67 -14 0 -25 -4 -25 -10 0 -5 15
-10 33 -10 45 0 80 37 74 76 -2 16 -5 21 -6 11z"/>
<path d="M870 4034 c0 -8 5 -12 10 -9 6 4 8 11 5 16 -9 14 -15 11 -15 -7z"/>
<path d="M697 4033 c-11 -10 -8 -23 4 -23 7 0 34 -16 61 -35 45 -33 68 -38 68
-14 0 5 -5 9 -11 9 -7 0 -34 16 -60 35 -54 38 -53 38 -62 28z"/>
<path d="M1746 3989 c-21 -11 -80 -50 -131 -85 -50 -35 -136 -85 -191 -111
l-99 -48 58 -3 c56 -3 63 0 154 54 53 31 110 70 128 86 18 15 37 28 43 28 6 0
13 -18 17 -40 8 -47 64 -100 106 -100 22 0 29 -7 43 -45 22 -57 48 -75 109
-75 l48 0 -3 48 c-3 44 -4 47 -30 44 -18 -2 -34 5 -52 25 -41 44 -42 61 -7 97
39 41 41 83 6 116 -37 35 -143 39 -199 9z"/>
<path d="M2077 3999 c-52 -30 -31 -108 30 -109 51 0 73 75 31 104 -26 19 -36
19 -61 5z"/>
<path d="M2283 3986 c-48 -40 -52 -79 -14 -133 l31 -44 -20 -30 c-22 -30 -52
-43 -86 -37 -16 3 -19 -3 -19 -41 l0 -45 60 3 c51 2 63 6 82 29 12 14 23 38
25 52 3 22 8 25 48 28 56 4 110 50 110 94 0 15 4 28 10 28 5 0 40 -29 77 -65
83 -81 190 -138 248 -133 45 4 57 23 20 32 -36 9 -173 96 -272 172 -100 77
-153 104 -218 111 -45 5 -55 2 -82 -21z"/>
<path d="M3480 3980 c0 -5 5 -10 10 -10 6 0 10 5 10 10 0 6 -4 10 -10 10 -5 0
-10 -4 -10 -10z"/>
<path d="M3413 3947 c-28 -19 -44 -47 -28 -47 15 0 84 54 79 61 -7 12 -14 10
-51 -14z"/>
<path d="M707 3943 c-4 -3 12 -17 35 -30 28 -16 45 -20 51 -14 6 6 9 12 6 13
-56 35 -80 43 -92 31z"/>
<path d="M3457 3913 c-4 -3 -7 -18 -7 -33 0 -14 -5 -31 -12 -38 -9 -9 -7 -12
10 -12 18 0 22 6 22 35 0 19 5 35 10 35 6 0 10 5 10 10 0 11 -23 14 -33 3z"/>
<path d="M690 3890 c0 -5 5 -10 11 -10 5 0 7 5 4 10 -3 6 -8 10 -11 10 -2 0
-4 -4 -4 -10z"/>
<path d="M3400 3880 c0 -5 5 -10 11 -10 5 0 7 5 4 10 -3 6 -8 10 -11 10 -2 0
-4 -4 -4 -10z"/>
<path d="M660 3860 c0 -5 5 -10 10 -10 6 0 10 5 10 10 0 6 -4 10 -10 10 -5 0
-10 -4 -10 -10z"/>
<path d="M730 3861 c0 -11 26 -22 34 -14 12 12 5 23 -14 23 -11 0 -20 -4 -20
-9z"/>
<path d="M2069 3848 c-1 -2 -3 -107 -5 -234 -3 -231 -3 -232 19 -238 12 -3 25
-2 28 2 4 4 9 112 13 240 l7 232 -31 0 c-16 0 -31 -1 -31 -2z"/>
<path d="M640 3825 c-7 -9 -1 -16 28 -27 50 -20 56 -21 59 -11 2 4 -15 18 -37
29 -31 17 -41 19 -50 9z"/>
<path d="M1620 3800 c-30 -22 -77 -53 -105 -69 -48 -30 -49 -31 -20 -31 29 0
148 62 187 97 15 14 15 44 -1 42 -3 0 -31 -18 -61 -39z"/>
<path d="M3470 3809 c-30 -16 -59 -30 -65 -32 -6 -3 -6 -9 1 -16 9 -9 20 -7
50 10 21 12 50 25 64 29 24 6 35 32 15 35 -5 1 -35 -11 -65 -26z"/>
<path d="M2530 3787 c0 -37 99 -112 167 -128 38 -8 44 3 9 19 -13 6 -56 38
-94 71 -39 34 -73 61 -76 61 -4 0 -6 -10 -6 -23z"/>
<path d="M3550 3788 c0 -23 -42 -50 -64 -42 -9 3 -16 1 -16 -4 0 -18 19 -24
50 -17 36 8 55 38 41 63 -10 16 -10 16 -11 0z"/>
<path d="M1695 3760 c-9 -10 -42 -36 -73 -57 -84 -58 -32 -56 57 2 59 38 70
49 60 61 -15 19 -23 18 -44 -6z"/>
<path d="M595 3760 c-8 -13 53 -50 83 -50 13 0 22 6 22 16 0 8 -5 12 -11 9
-12 -8 -69 14 -69 26 0 12 -17 11 -25 -1z"/>
<path d="M2471 3741 c-12 -8 -12 -12 -2 -25 24 -29 104 -76 129 -76 23 0 19 6
-34 55 -62 57 -70 61 -93 46z"/>
<path d="M1764 3719 c-10 -11 -31 -28 -46 -37 -33 -19 -36 -32 -8 -32 20 0
100 65 100 81 0 16 -27 9 -46 -12z"/>
<path d="M2390 3720 c-11 -7 -7 -16 25 -45 35 -34 83 -61 92 -52 3 3 -94 107
-100 107 -1 0 -9 -4 -17 -10z"/>
<path d="M3570 3710 c0 -5 5 -10 10 -10 6 0 10 5 10 10 0 6 -4 10 -10 10 -5 0
-10 -4 -10 -10z"/>
<path d="M579 3683 c-12 -15 -12 -16 4 -10 10 4 32 0 48 -8 28 -15 49 -13 49
4 0 6 -65 31 -82 31 -3 0 -12 -8 -19 -17z"/>
<path d="M3500 3680 c0 -11 1 -20 3 -20 1 0 10 9 20 20 16 19 16 20 -3 20 -13
0 -20 -7 -20 -20z"/>
<path d="M3565 3665 c-22 -11 -42 -21 -44 -22 -2 -1 -1 -10 3 -19 6 -15 8 -16
24 0 10 9 23 16 29 16 14 0 36 27 31 37 -1 5 -21 -1 -43 -12z"/>
<path d="M1812 3668 c-19 -19 -14 -53 13 -82 28 -30 30 -31 72 -8 l33 17 -50
43 c-55 48 -52 46 -68 30z"/>
<path d="M2317 3625 c-15 -14 -36 -25 -45 -25 -9 0 3 -11 27 -25 54 -31 61
-31 90 6 22 29 23 31 6 49 -24 26 -44 25 -78 -5z"/>
<path d="M557 3633 c-13 -12 -7 -21 21 -27 15 -3 37 -8 50 -12 12 -4 22 -2 22
4 0 6 -13 13 -30 17 -16 4 -32 11 -35 16 -7 11 -19 12 -28 2z"/>
<path d="M3580 3606 c-19 -7 -36 -20 -38 -29 -4 -21 -2 -21 34 -2 16 8 39 15
52 15 25 0 30 15 6 24 -9 3 -16 6 -17 5 -1 0 -18 -6 -37 -13z"/>
<path d="M2008 3593 c7 -3 16 -2 19 1 4 3 -2 6 -13 5 -11 0 -14 -3 -6 -6z"/>
<path d="M2175 3590 c4 -6 11 -8 16 -5 14 9 11 15 -7 15 -8 0 -12 -5 -9 -10z"/>
<path d="M545 3570 c-3 -5 3 -10 14 -10 12 0 21 5 21 10 0 6 -6 10 -14 10 -8
0 -18 -4 -21 -10z"/>
<path d="M1925 3559 c-115 -66 -98 -160 42 -238 32 -17 92 -51 133 -74 107
-61 123 -106 64 -176 -21 -26 -24 -34 -14 -46 33 -39 107 13 131 92 10 34 9
48 -2 74 -31 75 -80 108 -257 174 -89 33 -132 72 -132 122 l0 35 48 -6 c79
-10 113 35 37 49 -17 3 -39 0 -50 -6z"/>
<path d="M2193 3560 c-29 -12 -29 -25 -1 -44 28 -20 62 -20 78 -1 19 23 42 0
34 -34 -9 -36 -49 -77 -101 -102 -24 -11 -43 -24 -43 -29 0 -14 54 -28 75 -20
32 13 82 72 95 113 14 45 -1 76 -53 107 -35 22 -50 23 -84 10z"/>
<path d="M3577 3522 c-19 -20 -23 -52 -7 -52 6 0 10 7 10 15 0 20 37 37 63 29
19 -6 20 -5 8 10 -18 21 -54 20 -74 -2z"/>
<path d="M530 3510 c0 -12 42 -23 66 -18 9 1 20 10 22 18 5 13 3 13 -11 1 -13
-10 -24 -11 -47 -3 -17 7 -30 7 -30 2z"/>
<path d="M2003 3483 c-19 -7 -16 -21 7 -33 18 -9 20 -8 20 15 0 25 -4 28 -27
18z"/>
<path d="M465 3470 c-3 -5 1 -10 9 -10 9 0 16 5 16 10 0 6 -4 10 -9 10 -6 0
-13 -4 -16 -10z"/>
<path d="M2160 3465 c0 -8 7 -15 15 -15 22 0 18 -15 -7 -33 -13 -8 -20 -18
-16 -22 8 -8 78 34 78 46 0 9 -47 39 -60 39 -5 0 -10 -7 -10 -15z"/>
<path d="M3645 3470 c-3 -5 -1 -10 4 -10 6 0 11 5 11 10 0 6 -2 10 -4 10 -3 0
-8 -4 -11 -10z"/>
<path d="M3643 3427 c-44 -7 -63 -14 -63 -24 0 -11 8 -13 28 -9 15 3 46 8 69
11 23 4 47 13 54 21 13 16 7 17 -88 1z"/>
<path d="M1980 3426 c0 -3 9 -10 20 -16 11 -6 20 -8 20 -6 0 3 -9 10 -20 16
-11 6 -20 8 -20 6z"/>
<path d="M450 3392 c0 -17 50 -52 74 -52 25 0 66 26 66 43 0 8 -3 8 -12 -1
-18 -18 -88 -15 -110 5 -10 9 -18 11 -18 5z"/>
<path d="M3666 3364 c-11 -8 -33 -14 -49 -14 -19 0 -27 -4 -24 -12 5 -16 67
-11 86 7 20 20 9 36 -13 19z"/>
<path d="M1911 3227 c-57 -117 -6 -209 171 -310 25 -15 56 -43 69 -63 l22 -36
-22 -46 c-20 -40 -20 -47 -7 -60 22 -22 61 -7 86 34 18 28 21 46 18 89 -6 68
-17 81 -141 162 -131 85 -160 135 -121 208 14 28 14 30 -8 47 -34 26 -44 22
-67 -25z"/>
<path d="M2070 3131 c0 -57 3 -71 15 -71 13 0 15 12 13 67 -2 42 -8 68 -15 71
-10 3 -13 -15 -13 -67z"/>
<path d="M2017 3158 c-2 -7 -1 -22 4 -33 6 -16 8 -14 8 13 1 33 -4 41 -12 20z"/>
<path d="M2140 3125 c0 -15 4 -24 10 -20 6 3 10 12 10 20 0 8 -4 17 -10 20 -6
4 -10 -5 -10 -20z"/>
<path d="M1930 2905 c-7 -9 -15 -40 -18 -69 -6 -74 20 -122 95 -171 106 -71
145 -120 113 -140 -13 -8 -13 -52 1 -61 6 -3 25 8 43 25 25 26 31 39 31 76 0
49 -28 87 -98 132 -65 41 -96 83 -97 129 0 22 5 45 10 50 13 13 -4 30 -41 39
-17 4 -30 1 -39 -10z"/>
<path d="M2065 2850 c-7 -11 0 -89 9 -98 3 -3 6 20 6 51 0 56 -3 66 -15 47z"/>
<path d="M3542 2728 c-41 -41 23 -107 68 -70 15 12 21 26 18 42 l-4 25 -12
-28 c-11 -25 -14 -27 -34 -16 -13 7 -25 12 -28 11 -3 -1 -5 4 -5 11 0 7 10 11
23 10 14 -2 22 3 22 12 0 18 -31 20 -48 3z"/>
<path d="M618 2658 c-42 -14 -58 -25 -58 -38 0 -16 4 -16 58 6 31 13 63 24 70
24 6 0 12 7 12 15 0 19 -12 18 -82 -7z"/>
<path d="M3500 2620 c0 -5 9 -10 20 -10 11 0 20 5 20 10 0 6 -9 10 -20 10 -11
0 -20 -4 -20 -10z"/>
<path d="M1956 2613 c-3 -4 -6 -30 -6 -59 0 -47 3 -55 35 -83 19 -17 50 -38
68 -47 57 -29 87 -64 87 -103 0 -49 22 -26 23 25 1 33 -4 42 -43 73 -100 81
-104 86 -109 136 -5 37 -11 50 -28 56 -11 4 -24 5 -27 2z"/>
<path d="M3480 2586 c0 -16 46 -56 65 -56 20 0 47 37 42 57 -4 15 -5 15 -6 1
0 -9 -10 -19 -21 -23 -21 -7 -60 10 -60 25 0 6 -4 10 -10 10 -5 0 -10 -6 -10
-14z"/>
<path d="M628 2573 c-21 -9 -38 -22 -38 -29 0 -18 5 -18 57 2 24 9 43 23 43
30 0 17 -14 16 -62 -3z"/>
<path d="M2060 2530 c0 -16 5 -30 10 -30 6 0 10 14 10 30 0 17 -4 30 -10 30
-5 0 -10 -13 -10 -30z"/>
<path d="M687 2536 c-3 -8 -22 -20 -41 -27 -39 -14 -43 -21 -23 -37 15 -12 87
31 87 53 0 20 -17 28 -23 11z"/>
<path d="M3420 2530 c0 -5 5 -10 10 -10 6 0 10 5 10 10 0 6 -4 10 -10 10 -5 0
-10 -4 -10 -10z"/>
<path d="M3456 2523 c-14 -14 -4 -29 27 -39 17 -6 39 -14 48 -18 12 -5 18 -1
22 13 4 16 0 21 -14 21 -11 0 -33 7 -48 15 -16 8 -31 11 -35 8z"/>
<path d="M698 2449 c-43 -22 -54 -37 -39 -52 8 -8 14 -6 23 6 7 10 26 21 42
25 16 5 31 13 33 19 7 20 -22 21 -59 2z"/>
<path d="M3430 2460 c0 -5 5 -10 10 -10 6 0 10 5 10 10 0 6 -4 10 -10 10 -5 0
-10 -4 -10 -10z"/>
<path d="M3400 2405 c0 -14 81 -28 93 -16 13 13 -10 23 -54 26 -27 2 -39 -1
-39 -10z"/>
<path d="M1977 2393 c-4 -3 -7 -27 -6 -52 1 -45 1 -45 10 -14 5 18 14 35 19
38 15 9 12 35 -3 35 -8 0 -17 -3 -20 -7z"/>
<path d="M726 2369 c-14 -11 -26 -26 -26 -33 0 -15 38 -52 45 -44 3 3 -1 11
-10 18 -14 12 -14 15 1 31 10 11 29 19 43 19 25 1 25 1 7 15 -25 19 -28 19
-60 -6z"/>
<path d="M3370 2359 c0 -7 -8 -18 -17 -26 -14 -11 -15 -16 -5 -20 7 -3 25 -16
41 -29 21 -17 31 -20 39 -12 16 16 15 28 -1 28 -20 0 -51 37 -38 45 16 9 13
25 -4 25 -8 0 -15 -5 -15 -11z"/>
<path d="M778 2333 c-10 -2 -15 -10 -11 -19 7 -20 20 -18 33 6 11 20 9 21 -22
13z"/>
<path d="M2022 2310 c0 -14 2 -19 5 -12 2 6 2 18 0 25 -3 6 -5 1 -5 -13z"/>
<path d="M793 2267 c-18 -12 -32 -27 -33 -34 0 -24 19 -23 46 2 33 30 44 32
44 5 0 -22 15 -27 26 -8 4 6 0 16 -9 23 -10 7 -17 17 -17 24 0 16 -21 12 -57
-12z"/>
<path d="M3304 2267 c-24 -28 -24 -48 1 -73 13 -13 29 -24 35 -24 13 0 50 37
50 50 0 15 -17 12 -24 -5 -7 -20 -23 -19 -48 5 -17 15 -19 23 -10 32 8 8 15 8
26 -1 10 -8 16 -9 21 -1 16 26 -29 42 -51 17z"/>
<path d="M3197 2205 c-17 -12 -16 -13 7 -11 25 1 34 10 18 20 -4 2 -15 -2 -25
-9z"/>
<path d="M858 2181 c-25 -23 -37 -51 -23 -51 2 0 21 12 42 26 34 23 38 24 41
8 2 -9 -8 -27 -25 -40 -20 -16 -25 -26 -17 -34 8 -8 19 -4 42 17 39 33 40 45
7 78 -31 30 -33 30 -67 -4z"/>
<path d="M3160 2155 c0 -35 28 -46 70 -29 39 17 60 12 60 -13 0 -13 3 -14 12
-5 9 9 9 18 -1 38 -12 27 -15 28 -93 8 -22 -5 -28 -3 -28 10 0 9 -4 16 -10 16
-5 0 -10 -11 -10 -25z"/>
<path d="M975 2100 c-3 -5 3 -10 14 -10 28 0 26 -16 -4 -44 -16 -15 -23 -30
-19 -40 9 -23 17 -20 40 12 35 47 35 50 12 71 -24 23 -34 26 -43 11z"/>
<path d="M3228 2078 c8 -8 17 -8 34 0 22 10 21 11 -11 11 -27 1 -32 -2 -23
-11z"/>
<path d="M930 2065 c-10 -12 -10 -19 -2 -27 9 -9 16 -7 27 8 8 10 15 22 15 27
0 13 -27 7 -40 -8z"/>
<path d="M3103 2015 c11 -21 14 -23 27 -9 13 13 13 16 0 24 -28 18 -39 12 -27
-15z"/>
<path d="M1046 1997 c-30 -39 -32 -52 -11 -61 9 -3 15 0 15 10 0 8 11 26 25
40 28 28 32 44 11 44 -8 0 -26 -15 -40 -33z"/>
<path d="M3062 2004 c-10 -18 -8 -26 9 -48 24 -31 49 -33 72 -8 25 27 21 46
-4 21 -21 -21 -21 -21 -39 -1 -10 10 -20 28 -22 38 -4 18 -5 18 -16 -2z"/>
<path d="M1166 2003 c-11 -11 -6 -23 9 -23 8 0 15 4 15 9 0 13 -16 22 -24 14z"/>
<path d="M1130 1967 c0 -8 -11 -24 -25 -37 -19 -18 -22 -26 -14 -37 14 -16 29
-17 29 -1 0 6 10 22 21 34 12 13 19 30 16 38 -8 19 -27 21 -27 3z"/>
<path d="M2992 1956 c-35 -20 -35 -20 3 -61 26 -27 39 -35 47 -27 8 8 3 20
-17 44 -27 32 -28 33 -7 36 12 2 22 8 22 13 0 12 -20 10 -48 -5z"/>
<path d="M1167 1902 c-17 -19 -22 -44 -11 -55 4 -3 16 8 28 25 24 36 46 47 46
23 0 -26 -19 -55 -36 -55 -8 0 -12 -4 -9 -10 10 -16 29 -12 53 10 26 25 28 43
6 64 -21 21 -57 20 -77 -2z"/>
<path d="M2900 1890 c0 -5 4 -10 9 -10 5 0 14 -13 21 -30 8 -18 20 -30 31 -30
26 0 24 15 -8 50 -26 30 -53 40 -53 20z"/>
<path d="M2802 1869 c2 -7 10 -15 17 -17 8 -3 12 1 9 9 -2 7 -10 15 -17 17 -8
3 -12 -1 -9 -9z"/>
<path d="M2870 1865 c0 -8 5 -15 10 -15 6 0 10 7 10 15 0 8 -4 15 -10 15 -5 0
-10 -7 -10 -15z"/>
<path d="M1278 1831 c-21 -45 -22 -51 -5 -51 6 0 20 14 29 30 9 17 22 30 28
30 15 0 12 -33 -5 -56 -18 -24 -18 -31 0 -38 10 -4 20 6 30 31 8 19 15 41 15
47 0 10 -54 46 -68 46 -4 0 -15 -18 -24 -39z"/>
<path d="M2736 1854 c-41 -40 2 -124 64 -124 35 0 41 17 8 22 -12 2 -33 18
-45 37 -21 32 -22 36 -8 58 17 26 5 31 -19 7z"/>
<path d="M2890 1821 c0 -15 28 -33 40 -26 8 5 8 11 -1 21 -13 15 -39 19 -39 5z"/>
<path d="M1547 1803 c-2 -5 -10 -28 -17 -53 -7 -25 -20 -52 -27 -61 -14 -17
-8 -29 16 -29 11 0 22 19 34 60 9 32 17 66 17 75 0 15 -16 21 -23 8z"/>
<path d="M1410 1790 c0 -5 5 -10 10 -10 6 0 10 5 10 10 0 6 -4 10 -10 10 -5 0
-10 -4 -10 -10z"/>
<path d="M1454 1781 c8 -12 -23 -71 -36 -71 -6 0 -8 11 -5 25 3 20 1 25 -12
23 -9 -2 -17 -12 -19 -23 -2 -16 7 -25 36 -38 46 -20 55 -21 49 -4 -2 6 2 26
8 42 14 34 10 55 -11 55 -9 0 -13 -4 -10 -9z"/>
<path d="M1693 1749 c-30 -11 -55 -62 -47 -94 4 -15 20 -33 38 -42 31 -16 31
-15 14 4 -25 27 -23 82 4 110 25 27 22 34 -9 22z"/>
<path d="M2612 1748 c5 -15 28 -18 29 -3 0 6 -7 12 -17 13 -10 3 -15 -1 -12
-10z"/>
<path d="M2576 1742 c-3 -6 2 -30 11 -55 13 -34 20 -43 35 -39 18 4 26 22 9
22 -5 0 -13 17 -18 37 -8 36 -26 53 -37 35z"/>
<path d="M1757 1720 c7 -27 19 -34 27 -15 3 8 -3 19 -13 25 -16 8 -18 7 -14
-10z"/>
<path d="M2514 1695 c0 -16 6 -24 15 -23 23 5 24 26 3 37 -17 9 -20 7 -18 -14z"/>
<path d="M2467 1703 c-12 -12 -7 -60 7 -72 17 -14 68 -11 73 4 2 6 -9 11 -24
10 -24 0 -28 4 -31 33 -3 31 -11 39 -25 25z"/>
<path d="M2370 1680 c0 -5 5 -10 10 -10 6 0 10 -10 11 -22 1 -38 13 -58 27
-49 22 13 -3 91 -28 91 -11 0 -20 -4 -20 -10z"/>
<path d="M1814 1633 c1 -34 5 -49 16 -51 12 -2 15 8 15 45 0 36 -4 48 -16 51
-14 2 -17 -5 -15 -45z"/>
<path d="M2066 1672 c-12 -20 -15 -86 -5 -99 23 -27 34 -14 31 39 -4 53 -15
78 -26 60z"/>
<path d="M2319 1666 c6 -8 13 -28 14 -45 1 -22 7 -31 19 -31 14 0 16 6 12 33
-9 52 -12 57 -35 57 -17 0 -19 -3 -10 -14z"/>
<path d="M1877 1628 c-6 -46 -3 -58 16 -58 8 0 13 18 15 50 1 37 -2 50 -12 50
-8 0 -15 -16 -19 -42z"/>
<path d="M1949 1654 c-12 -14 -10 -19 15 -39 16 -13 25 -28 22 -34 -4 -6 0
-11 9 -11 26 0 31 31 7 51 -12 9 -22 24 -22 33 0 21 -14 20 -31 0z"/>
<path d="M2149 1651 c-20 -16 -22 -23 -14 -47 6 -16 18 -30 27 -32 15 -3 15 1
5 27 -8 23 -8 34 0 42 19 19 36 -1 30 -37 -6 -35 1 -42 21 -22 18 18 15 53 -6
71 -24 22 -34 21 -63 -2z"/>
<path d="M2266 1643 c4 -16 7 -38 7 -51 -1 -16 4 -22 16 -20 9 2 16 9 15 16
-1 6 -2 28 -2 47 -2 28 -6 35 -23 35 -18 0 -20 -4 -13 -27z"/>
<path d="M2005 1650 c3 -5 8 -10 11 -10 2 0 4 5 4 10 0 6 -5 10 -11 10 -5 0
-7 -4 -4 -10z"/>
<path d="M1940 1592 c0 -12 19 -26 26 -19 2 2 -2 10 -11 17 -9 8 -15 8 -15 2z"/>
<path d="M1102 1272 c-57 -53 -65 -159 -17 -208 19 -19 34 -24 67 -23 34 2 37
3 13 6 -60 9 -83 56 -70 141 5 33 16 55 40 79 26 26 29 33 15 33 -10 0 -31
-13 -48 -28z"/>
<path d="M1526 1275 c-12 -18 -13 -23 -2 -19 10 4 16 -17 26 -90 7 -52 10
-102 7 -111 -5 -12 1 -15 28 -15 33 0 33 0 20 28 -8 15 -19 68 -26 117 -6 50
-13 96 -15 103 -5 19 -20 14 -38 -13z"/>
<path d="M1825 1289 c12 -18 -26 -223 -43 -236 -13 -11 -9 -13 29 -13 29 0 39
3 30 9 -12 8 -11 24 3 107 9 55 21 109 26 122 9 20 7 22 -21 22 -19 0 -28 -4
-24 -11z"/>
<path d="M1993 1249 c-1 -28 -7 -57 -14 -65 -6 -7 -8 -18 -4 -24 10 -17 -17
-110 -32 -110 -8 0 -12 -4 -9 -8 3 -4 20 -6 38 -4 31 3 33 6 34 45 1 62 23
189 35 204 9 10 5 13 -17 13 -28 0 -29 -2 -31 -51z"/>
<path d="M2215 1290 c-8 -13 5 -13 25 0 13 8 13 10 -2 10 -9 0 -20 -4 -23 -10z"/>
<path d="M2310 1277 c0 -42 -32 -212 -42 -224 -8 -10 -2 -13 27 -13 31 0 36 2
26 14 -10 11 -10 28 -1 73 7 32 15 78 19 103 4 25 10 51 14 58 6 8 0 12 -17
12 -21 0 -26 -5 -26 -23z"/>
<path d="M2415 1290 c3 -5 13 -10 21 -10 8 0 12 5 9 10 -3 6 -13 10 -21 10 -8
0 -12 -4 -9 -10z"/>
<path d="M2620 1281 c-6 -12 -6 -21 -1 -23 12 -4 35 -172 28 -199 -4 -16 0
-19 36 -19 35 0 38 2 24 13 -11 8 -22 46 -33 117 -9 58 -18 111 -20 118 -5 18
-22 15 -34 -7z"/>
<path d="M2918 1288 c7 -9 6 -41 -3 -100 -15 -100 -23 -130 -39 -140 -6 -4 18
-7 54 -6 36 0 54 3 40 5 -48 8 -48 9 -39 60 6 26 13 73 18 103 5 30 12 63 16
73 6 14 2 17 -25 17 -25 0 -30 -3 -22 -12z"/>
<path d="M3047 1285 c50 -35 48 -158 -4 -209 -32 -32 -9 -36 30 -6 55 44 63
164 12 207 -14 13 -34 23 -43 23 -13 0 -12 -3 5 -15z"/>
<path d="M1256 1265 c4 -8 10 -15 15 -15 5 0 9 7 9 15 0 8 -7 15 -15 15 -9 0
-12 -6 -9 -15z"/>
<path d="M1460 1150 c0 -5 5 -10 11 -10 5 0 7 5 4 10 -3 6 -8 10 -11 10 -2 0
-4 -4 -4 -10z"/>
<path d="M2555 1150 c-3 -5 -1 -10 4 -10 6 0 11 5 11 10 0 6 -2 10 -4 10 -3 0
-8 -4 -11 -10z"/>
<path d="M1326 1073 c-12 -12 -6 -33 9 -33 8 0 15 6 15 14 0 17 -14 28 -24 19z"/>
<path d="M1676 1065 c-3 -9 1 -18 10 -22 19 -7 28 2 21 22 -8 19 -23 19 -31 0z"/>
<path d="M2106 1073 c-12 -12 -6 -33 9 -33 8 0 15 6 15 14 0 17 -14 28 -24 19z"/>
<path d="M2414 1069 c-10 -17 13 -36 27 -22 12 12 4 33 -11 33 -5 0 -12 -5
-16 -11z"/>
<path d="M2775 1070 c-7 -12 2 -30 16 -30 5 0 9 9 9 20 0 21 -15 27 -25 10z"/>
<path d="M1406 1055 c-4 -10 1 -15 16 -15 17 0 18 2 8 15 -7 8 -14 15 -15 15
-2 0 -5 -7 -9 -15z"/>
<path d="M2500 1055 c-11 -13 -8 -15 16 -15 16 0 25 4 19 8 -5 4 -13 11 -16
15 -3 4 -12 1 -19 -8z"/>
</g>
</svg>
